<?xml version="1.0" encoding="UTF-8"?> <svg xmlns="http://www.w3.org/2000/svg" xmlns:xlink="http://www.w3.org/1999/xlink" version="1.1" id="Layer_1" x="0px" y="0px" viewBox="0 0 210.9 52.4" style="enable-background:new 0 0 210.9 52.4;" xml:space="preserve"> <style type="text/css"> .st0{fill:#3496EE;} .st1{fill:#161313;} .st2{fill:#262626;} </style> <g> <g> <path class="st0" d="M14.2,15.6h6.4v7.6h-6.4v13.3c0,2.8,1.3,3.7,3.7,3.7c1,0,2.2-0.1,2.6-0.3V47c-0.8,0.3-2.3,0.8-4.8,0.8 c-6.2,0-10.1-3.7-10.1-9.8V23.2H0v-7.6h1.6c3.4,0,4.9-2.2,4.9-5V6.1h7.7V15.6z"></path> <path class="st0" d="M25.6,47.3V15.6h8.6v31.7C34.2,47.3,25.6,47.3,25.6,47.3z"></path> <path class="st0" d="M39.2,47.3V15.6h8.2v3.9c1.7-3.1,5.8-4.8,9.3-4.8c4.3,0,7.8,1.9,9.4,5.3c2.5-3.9,5.9-5.3,10.1-5.3 c5.9,0,11.5,3.5,11.5,12.1v20.6h-8.3V28.5c0-3.4-1.7-6-5.6-6c-3.7,0-5.9,2.8-5.9,6.3v18.6h-8.5V28.5c0-3.4-1.7-6-5.6-6 c-3.7,0-5.9,2.8-5.9,6.3v18.6h-8.7V47.3z"></path> </g> <g> <path class="st1" d="M98.8,20.1h2v1.6h-2v4.8c0,0.9,0.3,1.3,1.3,1.3c0.2,0,0.6,0,0.7-0.1v1.5c-0.2,0.1-0.6,0.2-1.2,0.2 c-1.6,0-2.6-1-2.6-2.7v-5.1h-1.8V20h0.5c1,0,1.4-0.6,1.4-1.4v-1.5h1.7V20.1z"></path> <path class="st1" d="M104.7,29.4h-1.8v-14h1.8v5.8c0.7-1,1.8-1.4,2.8-1.4c2.2,0,3.3,1.6,3.3,3.7v5.9H109v-5.6 c0-1.3-0.5-2.3-2.2-2.3c-1.4,0-2.1,1.1-2.2,2.5L104.7,29.4L104.7,29.4z"></path> <path class="st1" d="M121.1,26.8c-0.5,1.6-2,2.9-4.2,2.9c-2.5,0-4.7-1.8-4.7-5c0-2.9,2.1-4.9,4.5-4.9c2.9,0,4.5,2,4.5,4.9 c0,0.2,0,0.5,0,0.6h-7c0,1.7,1.2,2.8,2.8,2.8c1.5,0,2.3-0.8,2.6-1.9L121.1,26.8z M119.3,23.8c0-1.3-0.9-2.4-2.6-2.4 c-1.5,0-2.5,1.2-2.5,2.4H119.3z"></path> <path class="st1" d="M129.2,15.3c0.7,0,1.3,0.6,1.3,1.3c0,0.7-0.6,1.3-1.3,1.3s-1.3-0.6-1.3-1.3C127.9,15.9,128.5,15.3,129.2,15.3 z M128.3,29.4v-9.3h1.8v9.3C130.1,29.4,128.3,29.4,128.3,29.4z"></path> <path class="st1" d="M134.2,29.4h-1.8v-9.3h1.8v1.3c0.7-1.2,1.8-1.6,2.9-1.6c2.2,0,3.3,1.6,3.3,3.7v5.9h-1.8v-5.6 c0-1.3-0.5-2.3-2.2-2.3c-1.4,0-2.2,1.1-2.2,2.6V29.4z"></path> <path class="st1" d="M143.7,26.4c0.1,1,0.9,1.7,2.2,1.7c1,0,1.6-0.6,1.6-1.2s-0.4-1-1.2-1.2l-1.6-0.3c-1.5-0.3-2.3-1.3-2.3-2.6 c0-1.6,1.5-2.9,3.3-2.9c2.6,0,3.3,1.7,3.5,2.5l-1.6,0.6c-0.1-0.5-0.5-1.5-1.9-1.5c-0.9,0-1.5,0.6-1.5,1.2s0.3,1,1.1,1.1l1.5,0.3 c1.7,0.4,2.6,1.4,2.6,2.8c0,1.3-1.1,2.9-3.4,2.9c-2.6,0-3.6-1.6-3.8-2.7L143.7,26.4z"></path> <path class="st1" d="M150.9,33.1v-13h1.8v1.5c0.5-0.9,1.6-1.7,3.1-1.7c2.8,0,4.3,2.1,4.3,4.9s-1.6,4.9-4.3,4.9 c-1.4,0-2.5-0.7-3-1.5v4.9H150.9z M155.4,21.5c-1.7,0-2.8,1.4-2.8,3.3s1.1,3.3,2.8,3.3s2.7-1.4,2.7-3.3 C158.2,22.9,157.1,21.5,155.4,21.5z"></path> <path class="st1" d="M169.7,26.8c-0.5,1.6-2,2.9-4.2,2.9c-2.5,0-4.7-1.8-4.7-5c0-2.9,2.1-4.9,4.5-4.9c2.9,0,4.5,2,4.5,4.9 c0,0.2,0,0.5,0,0.6h-7c0,1.7,1.2,2.8,2.8,2.8c1.5,0,2.3-0.8,2.6-1.9L169.7,26.8z M167.9,23.8c0-1.3-0.9-2.4-2.6-2.4 c-1.5,0-2.5,1.2-2.5,2.4H167.9z"></path> <path class="st1" d="M172.8,24.8c0,2.1,1.3,3.3,2.8,3.3c1.7,0,2.4-1.2,2.6-1.9l1.6,0.7c-0.4,1.3-1.8,2.9-4.2,2.9 c-2.7,0-4.7-2.1-4.7-5s2-4.9,4.7-4.9c2.5,0,3.8,1.5,4.1,3l-1.6,0.7c-0.2-0.9-0.9-2-2.5-2C174.1,21.5,172.8,22.6,172.8,24.8z"></path> <path class="st1" d="M184,20.1h2v1.6h-2v4.8c0,0.9,0.3,1.3,1.3,1.3c0.2,0,0.6,0,0.7-0.1v1.5c-0.2,0.1-0.6,0.2-1.2,0.2 c-1.6,0-2.6-1-2.6-2.7v-5.1h-1.8V20h0.5c1,0,1.4-0.6,1.4-1.4v-1.5h1.7L184,20.1L184,20.1z"></path> <path class="st1" d="M188.5,15.3c0.7,0,1.3,0.6,1.3,1.3c0,0.7-0.6,1.3-1.3,1.3s-1.3-0.6-1.3-1.3C187.2,15.9,187.8,15.3,188.5,15.3 z M187.6,29.4v-9.3h1.8v9.3C189.4,29.4,187.6,29.4,187.6,29.4z"></path> <path class="st1" d="M200.5,24.8c0,2.8-2,5-4.8,5s-4.8-2.1-4.8-5c0-2.8,2-4.9,4.8-4.9C198.5,19.8,200.5,21.9,200.5,24.8z M198.6,24.8c0-2.1-1.4-3.3-2.9-3.3s-2.9,1.2-2.9,3.3c0,2.2,1.4,3.3,2.9,3.3C197.3,28.1,198.6,26.9,198.6,24.8z"></path> <path class="st1" d="M203.9,29.4h-1.8v-9.3h1.8v1.3c0.7-1.2,1.8-1.6,2.9-1.6c2.2,0,3.3,1.6,3.3,3.7v5.9h-1.8v-5.6 c0-1.3-0.5-2.3-2.2-2.3c-1.4,0-2.2,1.1-2.2,2.6V29.4z"></path> <path class="st1" d="M96.4,47.3V38h1.7v1.2c0.6-1,1.7-1.5,2.8-1.5c1.2,0,2.3,0.6,2.8,1.8c0.7-1.3,1.9-1.8,3.1-1.8 c1.6,0,3.2,1.1,3.2,3.5v6h-1.8v-5.8c0-1.2-0.6-2.1-2-2.1c-1.3,0-2.1,1-2.1,2.3v5.6h-1.8v-5.8c0-1.2-0.6-2.1-2-2.1 c-1.3,0-2.2,1-2.2,2.4v5.6C98.1,47.3,96.4,47.3,96.4,47.3z"></path> <path class="st1" d="M114.5,42l2.5-0.4c0.6-0.1,0.7-0.4,0.7-0.7c0-0.9-0.6-1.7-2-1.7c-1.3,0-2,0.8-2.1,1.9l-1.7-0.4 c0.2-1.8,1.8-3,3.8-3c2.8,0,3.9,1.6,3.9,3.4v4.7c0,0.8,0.1,1.3,0.1,1.5h-1.8c0-0.2-0.1-0.6-0.1-1.3c-0.4,0.7-1.3,1.5-3,1.5 c-1.9,0-3.1-1.3-3.1-2.8C111.6,43.1,112.9,42.2,114.5,42z M117.7,43.3v-0.4l-2.8,0.4c-0.8,0.1-1.4,0.6-1.4,1.4 c0,0.7,0.6,1.4,1.5,1.4C116.5,46.1,117.7,45.3,117.7,43.3z"></path> <path class="st1" d="M123.4,47.3h-1.8V38h1.8v1.3c0.7-1.2,1.8-1.6,2.9-1.6c2.2,0,3.3,1.6,3.3,3.7v5.9h-1.8v-5.6 c0-1.3-0.5-2.3-2.2-2.3c-1.4,0-2.2,1.1-2.2,2.6C123.4,42,123.4,47.3,123.4,47.3z"></path> <path class="st1" d="M133.9,42l2.5-0.4c0.6-0.1,0.7-0.4,0.7-0.7c0-0.9-0.6-1.7-2-1.7c-1.3,0-2,0.8-2.1,1.9l-1.7-0.4 c0.2-1.8,1.8-3,3.8-3c2.8,0,3.9,1.6,3.9,3.4v4.7c0,0.8,0.1,1.3,0.1,1.5h-1.8c0-0.2-0.1-0.6-0.1-1.3c-0.4,0.7-1.3,1.5-3,1.5 c-1.9,0-3.1-1.3-3.1-2.8C131.1,43.1,132.3,42.2,133.9,42z M137.1,43.3v-0.4l-2.8,0.4c-0.8,0.1-1.4,0.6-1.4,1.4 c0,0.7,0.6,1.4,1.5,1.4C135.9,46.1,137.1,45.3,137.1,43.3z"></path> <path class="st1" d="M142.1,47.4c0.1,1.3,1.1,2.3,2.5,2.3c2,0,2.8-1,2.8-3v-1.3c-0.4,0.9-1.5,1.5-2.8,1.5c-2.5,0-4.3-1.9-4.3-4.5 c0-2.5,1.7-4.5,4.3-4.5c1.4,0,2.4,0.5,2.9,1.5V38h1.8v8.6c0,2.4-1.2,4.7-4.7,4.7c-2.3,0-4.1-1.5-4.3-3.5L142.1,47.4z M147.5,42.3 c0-1.8-1.1-3-2.7-3c-1.6,0-2.7,1.2-2.7,3s1,3,2.7,3S147.5,44.1,147.5,42.3z"></path> <path class="st1" d="M159.5,44.6c-0.5,1.6-2,2.9-4.2,2.9c-2.5,0-4.7-1.8-4.7-5c0-2.9,2.1-4.9,4.5-4.9c2.9,0,4.5,2,4.5,4.9 c0,0.2,0,0.5,0,0.6h-7c0,1.7,1.2,2.8,2.8,2.8c1.5,0,2.3-0.8,2.6-1.9L159.5,44.6z M157.7,41.7c0-1.3-0.9-2.4-2.6-2.4 c-1.5,0-2.5,1.2-2.5,2.4H157.7z"></path> <path class="st1" d="M166.3,39.8c-0.3,0-0.5-0.1-0.8-0.1c-1.5,0-2.6,0.8-2.6,2.9v4.7h-1.8V38h1.8v1.6c0.7-1.4,1.8-1.8,2.8-1.8 c0.3,0,0.5,0,0.6,0.1V39.8z"></path> </g> <path class="st2" d="M29.9,11.5c-2.9,0-5.2-2.3-5.2-5.2s2.3-5.2,5.2-5.2s5.2,2.3,5.2,5.2S32.8,11.5,29.9,11.5z M29.9,2.5 c-2.2,0-3.9,1.8-3.9,3.9s1.8,3.9,3.9,3.9s3.9-1.8,3.9-3.9S32.1,2.5,29.9,2.5z"></path> <path class="st2" d="M29.9,9.2c-1.6,0-2.8-1.3-2.8-2.8s1.3-2.8,2.8-2.8c1.6,0,2.8,1.3,2.8,2.8S31.5,9.2,29.9,9.2z M29.9,4.2 c-1.2,0-2.1,1-2.1,2.1s1,2.1,2.1,2.1s2.1-1,2.1-2.1S31.1,4.2,29.9,4.2z"></path> </g> </svg> 